<svg width="24" height="24" viewBox="0 0 24 24" fill="none" xmlns="http://www.w3.org/2000/svg">
<g clip-path="url(#payment-onchain-clip)">
<path d="M0 0H24V24H0V0Z" fill="#F7931A"/>
<path d="M17.1144 10.5867C17.3358 9.08938 16.2024 8.29205 14.6411 7.74938L15.1478 5.73205L13.9131 5.42538L13.4211 7.39339L12.4371 7.15738L12.9371 5.17605L11.7038 4.86938L11.1971 6.89338L10.4131 6.70805V6.70138L8.7091 6.27472L8.3811 7.59205C8.3811 7.59205 9.2931 7.80539 9.27977 7.81339C9.77844 7.94139 9.86377 8.26938 9.8491 8.52672L9.27977 10.8374L9.40777 10.8801L9.27177 10.8507L8.46644 14.0814C8.4091 14.2307 8.2531 14.4587 7.90244 14.3667C7.9171 14.3881 7.01177 14.1534 7.01177 14.1534L6.39844 15.5574L8.00244 15.9574L8.87977 16.1841L8.36644 18.2307L9.59977 18.5374L10.0984 16.5121L11.0904 16.7694L10.5838 18.7867L11.8171 19.0934L12.3238 17.0467C14.4264 17.4467 16.0104 17.2894 16.6731 15.3854C17.2078 13.8521 16.6451 12.9761 15.5398 12.3907C16.3451 12.2134 16.9518 11.6787 17.1078 10.5867H17.1144V10.5867ZM14.2984 14.5374C13.9211 16.0707 11.3398 15.2361 10.5051 15.0361L11.1824 12.3201C12.0171 12.5334 14.6984 12.9401 14.2984 14.5307V14.5374V14.5374ZM14.6771 10.5654C14.3344 11.9561 12.1811 11.2507 11.4904 11.0787L12.1038 8.62005C12.8011 8.79072 15.0398 9.11872 14.6771 10.5667V10.5654Z" fill="white"/>
</g>
<defs>
<clipPath id="payment-onchain-clip">
<rect width="24" height="24" rx="12" fill="white"/>
</clipPath>
</defs>
</svg>
